<mxfile host="app.diagrams.net" agent="Mozilla/5.0 (X11; CrOS x86_64 14541.0.0) AppleWebKit/537.36 (KHTML, like Gecko) Chrome/133.0.0.0 Safari/537.36" version="26.1.3">
  <diagram name="Page-1" id="UFYnjJ72-dYCaj6Uz1dp">
    <mxGraphModel dx="1031" dy="559" grid="1" gridSize="10" guides="1" tooltips="1" connect="1" arrows="1" fold="1" page="1" pageScale="1" pageWidth="850" pageHeight="1100" math="0" shadow="0">
      <root>
        <mxCell id="0" />
        <mxCell id="1" parent="0" />
        <mxCell id="2OzfVPno6ePe4PrVe2rQ-1" value="Main" style="swimlane;fontStyle=1;align=center;verticalAlign=top;childLayout=stackLayout;horizontal=1;startSize=26;horizontalStack=0;resizeParent=1;resizeParentMax=0;resizeLast=0;collapsible=1;marginBottom=0;whiteSpace=wrap;html=1;" vertex="1" parent="1">
          <mxGeometry x="350" y="30" width="160" height="160" as="geometry" />
        </mxCell>
        <mxCell id="2OzfVPno6ePe4PrVe2rQ-2" value="+ boolean isStarted" style="text;strokeColor=none;fillColor=none;align=left;verticalAlign=top;spacingLeft=4;spacingRight=4;overflow=hidden;rotatable=0;points=[[0,0.5],[1,0.5]];portConstraint=eastwest;whiteSpace=wrap;html=1;" vertex="1" parent="2OzfVPno6ePe4PrVe2rQ-1">
          <mxGeometry y="26" width="160" height="74" as="geometry" />
        </mxCell>
        <mxCell id="2OzfVPno6ePe4PrVe2rQ-3" value="" style="line;strokeWidth=1;fillColor=none;align=left;verticalAlign=middle;spacingTop=-1;spacingLeft=3;spacingRight=3;rotatable=0;labelPosition=right;points=[];portConstraint=eastwest;strokeColor=inherit;" vertex="1" parent="2OzfVPno6ePe4PrVe2rQ-1">
          <mxGeometry y="100" width="160" height="8" as="geometry" />
        </mxCell>
        <mxCell id="2OzfVPno6ePe4PrVe2rQ-4" value="+ createPlayer()&lt;div&gt;+ loadMap()&lt;/div&gt;&lt;div&gt;+ start screen()&lt;/div&gt;" style="text;strokeColor=none;fillColor=none;align=left;verticalAlign=top;spacingLeft=4;spacingRight=4;overflow=hidden;rotatable=0;points=[[0,0.5],[1,0.5]];portConstraint=eastwest;whiteSpace=wrap;html=1;" vertex="1" parent="2OzfVPno6ePe4PrVe2rQ-1">
          <mxGeometry y="108" width="160" height="52" as="geometry" />
        </mxCell>
        <mxCell id="2OzfVPno6ePe4PrVe2rQ-19" style="edgeStyle=orthogonalEdgeStyle;rounded=0;orthogonalLoop=1;jettySize=auto;html=1;entryX=0;entryY=0.5;entryDx=0;entryDy=0;" edge="1" parent="1" source="2OzfVPno6ePe4PrVe2rQ-5" target="2OzfVPno6ePe4PrVe2rQ-2">
          <mxGeometry relative="1" as="geometry" />
        </mxCell>
        <mxCell id="2OzfVPno6ePe4PrVe2rQ-5" value="Player" style="swimlane;fontStyle=1;align=center;verticalAlign=top;childLayout=stackLayout;horizontal=1;startSize=26;horizontalStack=0;resizeParent=1;resizeParentMax=0;resizeLast=0;collapsible=1;marginBottom=0;whiteSpace=wrap;html=1;" vertex="1" parent="1">
          <mxGeometry x="120" y="150" width="160" height="130" as="geometry" />
        </mxCell>
        <mxCell id="2OzfVPno6ePe4PrVe2rQ-6" value="+ int xpos,ypos&lt;div&gt;+ sting powerups&lt;/div&gt;&lt;div&gt;+ boolean isAlive&lt;/div&gt;" style="text;strokeColor=none;fillColor=none;align=left;verticalAlign=top;spacingLeft=4;spacingRight=4;overflow=hidden;rotatable=0;points=[[0,0.5],[1,0.5]];portConstraint=eastwest;whiteSpace=wrap;html=1;" vertex="1" parent="2OzfVPno6ePe4PrVe2rQ-5">
          <mxGeometry y="26" width="160" height="54" as="geometry" />
        </mxCell>
        <mxCell id="2OzfVPno6ePe4PrVe2rQ-7" value="" style="line;strokeWidth=1;fillColor=none;align=left;verticalAlign=middle;spacingTop=-1;spacingLeft=3;spacingRight=3;rotatable=0;labelPosition=right;points=[];portConstraint=eastwest;strokeColor=inherit;" vertex="1" parent="2OzfVPno6ePe4PrVe2rQ-5">
          <mxGeometry y="80" width="160" height="8" as="geometry" />
        </mxCell>
        <mxCell id="2OzfVPno6ePe4PrVe2rQ-8" value="+ movement()" style="text;strokeColor=none;fillColor=none;align=left;verticalAlign=top;spacingLeft=4;spacingRight=4;overflow=hidden;rotatable=0;points=[[0,0.5],[1,0.5]];portConstraint=eastwest;whiteSpace=wrap;html=1;" vertex="1" parent="2OzfVPno6ePe4PrVe2rQ-5">
          <mxGeometry y="88" width="160" height="42" as="geometry" />
        </mxCell>
        <mxCell id="2OzfVPno6ePe4PrVe2rQ-24" style="edgeStyle=orthogonalEdgeStyle;rounded=0;orthogonalLoop=1;jettySize=auto;html=1;" edge="1" parent="1" source="2OzfVPno6ePe4PrVe2rQ-20" target="2OzfVPno6ePe4PrVe2rQ-27">
          <mxGeometry relative="1" as="geometry">
            <mxPoint x="640" y="208" as="targetPoint" />
          </mxGeometry>
        </mxCell>
        <mxCell id="2OzfVPno6ePe4PrVe2rQ-20" value="Enemy" style="swimlane;fontStyle=1;align=center;verticalAlign=top;childLayout=stackLayout;horizontal=1;startSize=26;horizontalStack=0;resizeParent=1;resizeParentMax=0;resizeLast=0;collapsible=1;marginBottom=0;whiteSpace=wrap;html=1;" vertex="1" parent="1">
          <mxGeometry x="440" y="310" width="160" height="88" as="geometry" />
        </mxCell>
        <mxCell id="2OzfVPno6ePe4PrVe2rQ-21" value="+ int dToPlayer&lt;div&gt;+ boolean playerHit&lt;/div&gt;" style="text;strokeColor=none;fillColor=none;align=left;verticalAlign=top;spacingLeft=4;spacingRight=4;overflow=hidden;rotatable=0;points=[[0,0.5],[1,0.5]];portConstraint=eastwest;whiteSpace=wrap;html=1;" vertex="1" parent="2OzfVPno6ePe4PrVe2rQ-20">
          <mxGeometry y="26" width="160" height="54" as="geometry" />
        </mxCell>
        <mxCell id="2OzfVPno6ePe4PrVe2rQ-22" value="" style="line;strokeWidth=1;fillColor=none;align=left;verticalAlign=middle;spacingTop=-1;spacingLeft=3;spacingRight=3;rotatable=0;labelPosition=right;points=[];portConstraint=eastwest;strokeColor=inherit;" vertex="1" parent="2OzfVPno6ePe4PrVe2rQ-20">
          <mxGeometry y="80" width="160" height="8" as="geometry" />
        </mxCell>
        <mxCell id="2OzfVPno6ePe4PrVe2rQ-30" style="edgeStyle=orthogonalEdgeStyle;rounded=0;orthogonalLoop=1;jettySize=auto;html=1;entryX=1;entryY=0.5;entryDx=0;entryDy=0;" edge="1" parent="1" source="2OzfVPno6ePe4PrVe2rQ-26" target="2OzfVPno6ePe4PrVe2rQ-2">
          <mxGeometry relative="1" as="geometry" />
        </mxCell>
        <mxCell id="2OzfVPno6ePe4PrVe2rQ-26" value="Level" style="swimlane;fontStyle=1;align=center;verticalAlign=top;childLayout=stackLayout;horizontal=1;startSize=26;horizontalStack=0;resizeParent=1;resizeParentMax=0;resizeLast=0;collapsible=1;marginBottom=0;whiteSpace=wrap;html=1;" vertex="1" parent="1">
          <mxGeometry x="640" y="140" width="160" height="114" as="geometry" />
        </mxCell>
        <mxCell id="2OzfVPno6ePe4PrVe2rQ-27" value="+ int endLocatoin&lt;div&gt;+ int obstacles&lt;/div&gt;&lt;div&gt;+ int timer&lt;/div&gt;" style="text;strokeColor=none;fillColor=none;align=left;verticalAlign=top;spacingLeft=4;spacingRight=4;overflow=hidden;rotatable=0;points=[[0,0.5],[1,0.5]];portConstraint=eastwest;whiteSpace=wrap;html=1;" vertex="1" parent="2OzfVPno6ePe4PrVe2rQ-26">
          <mxGeometry y="26" width="160" height="54" as="geometry" />
        </mxCell>
        <mxCell id="2OzfVPno6ePe4PrVe2rQ-28" value="" style="line;strokeWidth=1;fillColor=none;align=left;verticalAlign=middle;spacingTop=-1;spacingLeft=3;spacingRight=3;rotatable=0;labelPosition=right;points=[];portConstraint=eastwest;strokeColor=inherit;" vertex="1" parent="2OzfVPno6ePe4PrVe2rQ-26">
          <mxGeometry y="80" width="160" height="8" as="geometry" />
        </mxCell>
        <mxCell id="2OzfVPno6ePe4PrVe2rQ-29" value="+ method(type): type" style="text;strokeColor=none;fillColor=none;align=left;verticalAlign=top;spacingLeft=4;spacingRight=4;overflow=hidden;rotatable=0;points=[[0,0.5],[1,0.5]];portConstraint=eastwest;whiteSpace=wrap;html=1;" vertex="1" parent="2OzfVPno6ePe4PrVe2rQ-26">
          <mxGeometry y="88" width="160" height="26" as="geometry" />
        </mxCell>
      </root>
    </mxGraphModel>
  </diagram>
</mxfile>
